<svg width="30" height="30" viewBox="0 0 30 30" fill="none" xmlns="http://www.w3.org/2000/svg">
<rect width="30" height="30" rx="15" fill="#AD343E"/>
<path d="M9 9H10.3333L10.6 10.3333M11.6667 15.6667H18.3333L21 10.3333H10.6M11.6667 15.6667L10.6 10.3333M11.6667 15.6667L10.1381 17.1953C9.71809 17.6152 10.0155 18.3333 10.6095 18.3333H18.3333M18.3333 18.3333C17.597 18.3333 17 18.9303 17 19.6667C17 20.403 17.597 21 18.3333 21C19.0697 21 19.6667 20.403 19.6667 19.6667C19.6667 18.9303 19.0697 18.3333 18.3333 18.3333ZM13 19.6667C13 20.403 12.403 21 11.6667 21C10.9303 21 10.3333 20.403 10.3333 19.6667C10.3333 18.9303 10.9303 18.3333 11.6667 18.3333C12.403 18.3333 13 18.9303 13 19.6667Z" stroke="white" stroke-width="1.59257" stroke-linecap="round" stroke-linejoin="round"/>
</svg>
