<svg width="30" height="30" viewBox="0 0 30 30" fill="none" xmlns="http://www.w3.org/2000/svg">
<rect width="30" height="30" rx="15" fill="#AD343E"/>
<path d="M13.0002 16.3333L17.0002 12.3333M13.3335 12.6667H13.3402M16.6668 16H16.6735M19.6668 21V10.3333C19.6668 9.59695 19.0699 9 18.3335 9H11.6668C10.9304 9 10.3335 9.59695 10.3335 10.3333V21L12.6668 19.6667L15.0002 21L17.3335 19.6667L19.6668 21ZM13.6668 12.6667C13.6668 12.8508 13.5176 13 13.3335 13C13.1494 13 13.0002 12.8508 13.0002 12.6667C13.0002 12.4826 13.1494 12.3333 13.3335 12.3333C13.5176 12.3333 13.6668 12.4826 13.6668 12.6667ZM17.0002 16C17.0002 16.1841 16.8509 16.3333 16.6668 16.3333C16.4827 16.3333 16.3335 16.1841 16.3335 16C16.3335 15.8159 16.4827 15.6667 16.6668 15.6667C16.8509 15.6667 17.0002 15.8159 17.0002 16Z" stroke="white" stroke-width="1.59257" stroke-linecap="round" stroke-linejoin="round"/>
</svg>
